<?xml version="1.0" encoding="UTF-8" ?>
<svg version="1.1" width="1280" height="900" xmlns="http://www.w3.org/2000/svg" shape-rendering="crispEdges">
<rect x="590" y="260" width="10" height="10" fill="#FFFFFE" />
<rect x="600" y="260" width="10" height="10" fill="#FFFFFE" />
<rect x="610" y="260" width="10" height="10" fill="#FFFFFE" />
<rect x="620" y="260" width="10" height="10" fill="#FFFFFE" />
<rect x="630" y="260" width="10" height="10" fill="#FFFFFE" />
<rect x="640" y="260" width="10" height="10" fill="#FFFFFE" />
<rect x="650" y="260" width="10" height="10" fill="#FFFFFE" />
<rect x="660" y="260" width="10" height="10" fill="#FFFFFE" />
<rect x="670" y="260" width="10" height="10" fill="#FFFFFE" />
<rect x="680" y="260" width="10" height="10" fill="#FFFFFE" />
<rect x="560" y="270" width="10" height="10" fill="#FFFFFE" />
<rect x="570" y="270" width="10" height="10" fill="#FFFFFE" />
<rect x="580" y="270" width="10" height="10" fill="#FFFFFE" />
<rect x="590" y="270" width="10" height="10" fill="#FFFFFE" />
<rect x="600" y="270" width="10" height="10" fill="#FFFFFE" />
<rect x="610" y="270" width="10" height="10" fill="#FFFFFE" />
<rect x="620" y="270" width="10" height="10" fill="#FFFFFE" />
<rect x="630" y="270" width="10" height="10" fill="#FFFFFE" />
<rect x="640" y="270" width="10" height="10" fill="#FFFFFE" />
<rect x="650" y="270" width="10" height="10" fill="#FFFFFE" />
<rect x="660" y="270" width="10" height="10" fill="#FFFFFE" />
<rect x="670" y="270" width="10" height="10" fill="#FFFFFE" />
<rect x="680" y="270" width="10" height="10" fill="#FFFFFE" />
<rect x="690" y="270" width="10" height="10" fill="#FFFFFE" />
<rect x="700" y="270" width="10" height="10" fill="#FFFFFE" />
<rect x="550" y="280" width="10" height="10" fill="#FFFFFE" />
<rect x="560" y="280" width="10" height="10" fill="#FFFFFE" />
<rect x="570" y="280" width="10" height="10" fill="#FFFFFE" />
<rect x="580" y="280" width="10" height="10" fill="#FFFFFE" />
<rect x="590" y="280" width="10" height="10" fill="#FFFFFE" />
<rect x="600" y="280" width="10" height="10" fill="#FFFFFE" />
<rect x="610" y="280" width="10" height="10" fill="#FFFFFE" />
<rect x="620" y="280" width="10" height="10" fill="#FFFFFE" />
<rect x="630" y="280" width="10" height="10" fill="#FFFFFE" />
<rect x="640" y="280" width="10" height="10" fill="#FFFFFE" />
<rect x="650" y="280" width="10" height="10" fill="#FFFFFE" />
<rect x="660" y="280" width="10" height="10" fill="#FFFFFE" />
<rect x="670" y="280" width="10" height="10" fill="#FFFFFE" />
<rect x="680" y="280" width="10" height="10" fill="#FFFFFE" />
<rect x="690" y="280" width="10" height="10" fill="#FFFFFE" />
<rect x="700" y="280" width="10" height="10" fill="#FFFFFE" />
<rect x="710" y="280" width="10" height="10" fill="#FFFFFE" />
<rect x="720" y="280" width="10" height="10" fill="#FFFFFE" />
<rect x="540" y="290" width="10" height="10" fill="#FFFFFE" />
<rect x="550" y="290" width="10" height="10" fill="#FFFFFE" />
<rect x="560" y="290" width="10" height="10" fill="#FFFFFE" />
<rect x="570" y="290" width="10" height="10" fill="#FFFFFE" />
<rect x="580" y="290" width="10" height="10" fill="#FFFFFE" />
<rect x="590" y="290" width="10" height="10" fill="#FFFFFE" />
<rect x="600" y="290" width="10" height="10" fill="#FFFFFE" />
<rect x="610" y="290" width="10" height="10" fill="#FFFFFE" />
<rect x="620" y="290" width="10" height="10" fill="#FFFFFE" />
<rect x="630" y="290" width="10" height="10" fill="#FFFFFE" />
<rect x="640" y="290" width="10" height="10" fill="#FFFFFE" />
<rect x="650" y="290" width="10" height="10" fill="#FFFFFE" />
<rect x="660" y="290" width="10" height="10" fill="#FFFFFE" />
<rect x="670" y="290" width="10" height="10" fill="#FFFFFE" />
<rect x="680" y="290" width="10" height="10" fill="#FFFFFE" />
<rect x="690" y="290" width="10" height="10" fill="#FFFFFE" />
<rect x="700" y="290" width="10" height="10" fill="#FFFFFE" />
<rect x="710" y="290" width="10" height="10" fill="#FFFFFE" />
<rect x="720" y="290" width="10" height="10" fill="#FFFFFE" />
<rect x="730" y="290" width="10" height="10" fill="#FFFFFE" />
<rect x="540" y="300" width="10" height="10" fill="#FFFFFE" />
<rect x="550" y="300" width="10" height="10" fill="#FFFFFE" />
<rect x="560" y="300" width="10" height="10" fill="#FFFFFE" />
<rect x="570" y="300" width="10" height="10" fill="#FFFFFE" />
<rect x="580" y="300" width="10" height="10" fill="#FFFFFE" />
<rect x="590" y="300" width="10" height="10" fill="#FFFFFE" />
<rect x="600" y="300" width="10" height="10" fill="#FFFFFE" />
<rect x="610" y="300" width="10" height="10" fill="#FFFFFE" />
<rect x="620" y="300" width="10" height="10" fill="#FFFFFE" />
<rect x="630" y="300" width="10" height="10" fill="#FFFFFE" />
<rect x="640" y="300" width="10" height="10" fill="#FFFFFE" />
<rect x="650" y="300" width="10" height="10" fill="#FFFFFE" />
<rect x="660" y="300" width="10" height="10" fill="#FFFFFE" />
<rect x="670" y="300" width="10" height="10" fill="#FFFFFE" />
<rect x="680" y="300" width="10" height="10" fill="#FFFFFE" />
<rect x="690" y="300" width="10" height="10" fill="#FFFFFE" />
<rect x="700" y="300" width="10" height="10" fill="#FFFFFE" />
<rect x="710" y="300" width="10" height="10" fill="#FFFFFE" />
<rect x="720" y="300" width="10" height="10" fill="#FFFFFE" />
<rect x="730" y="300" width="10" height="10" fill="#FFFFFE" />
<rect x="520" y="310" width="10" height="10" fill="#FFFFFE" />
<rect x="530" y="310" width="10" height="10" fill="#FFFFFE" />
<rect x="540" y="310" width="10" height="10" fill="#FFFFFE" />
<rect x="550" y="310" width="10" height="10" fill="#FFFFFE" />
<rect x="560" y="310" width="10" height="10" fill="#FFFFFE" />
<rect x="570" y="310" width="10" height="10" fill="#FFFFFE" />
<rect x="580" y="310" width="10" height="10" fill="#FFFFFE" />
<rect x="590" y="310" width="10" height="10" fill="#FFFFFE" />
<rect x="600" y="310" width="10" height="10" fill="#FFFFFE" />
<rect x="610" y="310" width="10" height="10" fill="#FFFFFE" />
<rect x="620" y="310" width="10" height="10" fill="#FFFFFE" />
<rect x="630" y="310" width="10" height="10" fill="#FFFFFE" />
<rect x="640" y="310" width="10" height="10" fill="#FFFFFE" />
<rect x="650" y="310" width="10" height="10" fill="#FFFFFE" />
<rect x="660" y="310" width="10" height="10" fill="#FFFFFE" />
<rect x="670" y="310" width="10" height="10" fill="#FFFFFE" />
<rect x="680" y="310" width="10" height="10" fill="#FFFFFE" />
<rect x="690" y="310" width="10" height="10" fill="#FFFFFE" />
<rect x="700" y="310" width="10" height="10" fill="#FFFFFE" />
<rect x="710" y="310" width="10" height="10" fill="#FFFFFE" />
<rect x="720" y="310" width="10" height="10" fill="#FFFFFE" />
<rect x="730" y="310" width="10" height="10" fill="#FFFFFE" />
<rect x="740" y="310" width="10" height="10" fill="#FFFFFE" />
<rect x="510" y="320" width="10" height="10" fill="#FFFFFE" />
<rect x="520" y="320" width="10" height="10" fill="#FFFFFE" />
<rect x="530" y="320" width="10" height="10" fill="#FFFFFE" />
<rect x="540" y="320" width="10" height="10" fill="#FFFFFE" />
<rect x="550" y="320" width="10" height="10" fill="#FFFFFE" />
<rect x="560" y="320" width="10" height="10" fill="#FFFFFE" />
<rect x="570" y="320" width="10" height="10" fill="#FFFFFE" />
<rect x="580" y="320" width="10" height="10" fill="#FFFFFE" />
<rect x="590" y="320" width="10" height="10" fill="#FFFFFE" />
<rect x="600" y="320" width="10" height="10" fill="#FFFFFE" />
<rect x="610" y="320" width="10" height="10" fill="#FFFFFE" />
<rect x="620" y="320" width="10" height="10" fill="#FFFFFE" />
<rect x="630" y="320" width="10" height="10" fill="#FFFFFE" />
<rect x="640" y="320" width="10" height="10" fill="#FFFFFE" />
<rect x="650" y="320" width="10" height="10" fill="#FFFFFE" />
<rect x="660" y="320" width="10" height="10" fill="#FFFFFE" />
<rect x="670" y="320" width="10" height="10" fill="#FFFFFE" />
<rect x="680" y="320" width="10" height="10" fill="#FFFFFE" />
<rect x="690" y="320" width="10" height="10" fill="#FFFFFE" />
<rect x="700" y="320" width="10" height="10" fill="#FFFFFE" />
<rect x="710" y="320" width="10" height="10" fill="#FFFFFE" />
<rect x="720" y="320" width="10" height="10" fill="#FFFFFE" />
<rect x="730" y="320" width="10" height="10" fill="#FFFFFE" />
<rect x="740" y="320" width="10" height="10" fill="#FFFFFE" />
<rect x="750" y="320" width="10" height="10" fill="#FFFFFE" />
<rect x="760" y="320" width="10" height="10" fill="#FFFFFE" />
<rect x="510" y="330" width="10" height="10" fill="#FFFFFE" />
<rect x="520" y="330" width="10" height="10" fill="#FFFFFE" />
<rect x="530" y="330" width="10" height="10" fill="#FFFFFE" />
<rect x="540" y="330" width="10" height="10" fill="#FFFFFE" />
<rect x="550" y="330" width="10" height="10" fill="#FFFFFE" />
<rect x="560" y="330" width="10" height="10" fill="#FFFFFE" />
<rect x="570" y="330" width="10" height="10" fill="#FFFFFE" />
<rect x="580" y="330" width="10" height="10" fill="#FFFFFE" />
<rect x="590" y="330" width="10" height="10" fill="#FFFFFE" />
<rect x="600" y="330" width="10" height="10" fill="#FFFFFE" />
<rect x="610" y="330" width="10" height="10" fill="#FFFFFE" />
<rect x="620" y="330" width="10" height="10" fill="#FFFFFE" />
<rect x="630" y="330" width="10" height="10" fill="#FFFFFE" />
<rect x="640" y="330" width="10" height="10" fill="#FFFFFE" />
<rect x="650" y="330" width="10" height="10" fill="#FFFFFE" />
<rect x="660" y="330" width="10" height="10" fill="#FFFFFE" />
<rect x="670" y="330" width="10" height="10" fill="#FFFFFE" />
<rect x="680" y="330" width="10" height="10" fill="#FFFFFE" />
<rect x="690" y="330" width="10" height="10" fill="#FFFFFE" />
<rect x="700" y="330" width="10" height="10" fill="#FFFFFE" />
<rect x="710" y="330" width="10" height="10" fill="#FFFFFE" />
<rect x="720" y="330" width="10" height="10" fill="#FFFFFE" />
<rect x="730" y="330" width="10" height="10" fill="#FFFFFE" />
<rect x="740" y="330" width="10" height="10" fill="#FFFFFE" />
<rect x="750" y="330" width="10" height="10" fill="#FFFFFE" />
<rect x="760" y="330" width="10" height="10" fill="#FFFFFE" />
<rect x="500" y="340" width="10" height="10" fill="#FFFFFE" />
<rect x="510" y="340" width="10" height="10" fill="#FFFFFE" />
<rect x="520" y="340" width="10" height="10" fill="#FFFFFE" />
<rect x="530" y="340" width="10" height="10" fill="#FFFFFE" />
<rect x="540" y="340" width="10" height="10" fill="#FFFFFE" />
<rect x="550" y="340" width="10" height="10" fill="#FFFFFE" />
<rect x="560" y="340" width="10" height="10" fill="#FFFFFE" />
<rect x="570" y="340" width="10" height="10" fill="#FFFFFE" />
<rect x="580" y="340" width="10" height="10" fill="#FFFFFE" />
<rect x="590" y="340" width="10" height="10" fill="#FFFFFE" />
<rect x="600" y="340" width="10" height="10" fill="#FFFFFE" />
<rect x="610" y="340" width="10" height="10" fill="#FFFFFE" />
<rect x="620" y="340" width="10" height="10" fill="#FFFFFE" />
<rect x="630" y="340" width="10" height="10" fill="#FFFFFE" />
<rect x="640" y="340" width="10" height="10" fill="#FFFFFE" />
<rect x="650" y="340" width="10" height="10" fill="#FFFFFE" />
<rect x="660" y="340" width="10" height="10" fill="#FFFFFE" />
<rect x="670" y="340" width="10" height="10" fill="#FFFFFE" />
<rect x="680" y="340" width="10" height="10" fill="#FFFFFE" />
<rect x="690" y="340" width="10" height="10" fill="#FFFFFE" />
<rect x="700" y="340" width="10" height="10" fill="#FFFFFE" />
<rect x="710" y="340" width="10" height="10" fill="#FFFFFE" />
<rect x="720" y="340" width="10" height="10" fill="#FFFFFE" />
<rect x="730" y="340" width="10" height="10" fill="#FFFFFE" />
<rect x="740" y="340" width="10" height="10" fill="#FFFFFE" />
<rect x="750" y="340" width="10" height="10" fill="#FFFFFE" />
<rect x="760" y="340" width="10" height="10" fill="#FFFFFE" />
<rect x="770" y="340" width="10" height="10" fill="#FFFFFE" />
<rect x="500" y="350" width="10" height="10" fill="#FFFFFE" />
<rect x="510" y="350" width="10" height="10" fill="#FFFFFE" />
<rect x="520" y="350" width="10" height="10" fill="#FFFFFE" />
<rect x="530" y="350" width="10" height="10" fill="#FFFFFE" />
<rect x="540" y="350" width="10" height="10" fill="#FFFFFE" />
<rect x="550" y="350" width="10" height="10" fill="#FFFFFE" />
<rect x="560" y="350" width="10" height="10" fill="#FFFFFE" />
<rect x="570" y="350" width="10" height="10" fill="#FFFFFE" />
<rect x="580" y="350" width="10" height="10" fill="#FFFFFE" />
<rect x="590" y="350" width="10" height="10" fill="#FFFFFE" />
<rect x="600" y="350" width="10" height="10" fill="#FFFFFE" />
<rect x="610" y="350" width="10" height="10" fill="#FFFFFE" />
<rect x="620" y="350" width="10" height="10" fill="#FFFFFE" />
<rect x="630" y="350" width="10" height="10" fill="#FFFFFE" />
<rect x="640" y="350" width="10" height="10" fill="#FFFFFE" />
<rect x="650" y="350" width="10" height="10" fill="#FFFFFE" />
<rect x="660" y="350" width="10" height="10" fill="#FFFFFE" />
<rect x="670" y="350" width="10" height="10" fill="#FFFFFE" />
<rect x="680" y="350" width="10" height="10" fill="#FFFFFE" />
<rect x="690" y="350" width="10" height="10" fill="#FFFFFE" />
<rect x="700" y="350" width="10" height="10" fill="#FFFFFE" />
<rect x="710" y="350" width="10" height="10" fill="#FFFFFE" />
<rect x="720" y="350" width="10" height="10" fill="#FFFFFE" />
<rect x="730" y="350" width="10" height="10" fill="#FFFFFE" />
<rect x="740" y="350" width="10" height="10" fill="#FFFFFE" />
<rect x="750" y="350" width="10" height="10" fill="#FFFFFE" />
<rect x="760" y="350" width="10" height="10" fill="#FFFFFE" />
<rect x="770" y="350" width="10" height="10" fill="#FFFFFE" />
<rect x="500" y="360" width="10" height="10" fill="#FFFFFE" />
<rect x="510" y="360" width="10" height="10" fill="#FFFFFE" />
<rect x="520" y="360" width="10" height="10" fill="#FFFFFE" />
<rect x="530" y="360" width="10" height="10" fill="#FFFFFE" />
<rect x="540" y="360" width="10" height="10" fill="#FFFFFE" />
<rect x="550" y="360" width="10" height="10" fill="#FFFFFE" />
<rect x="560" y="360" width="10" height="10" fill="#FFFFFE" />
<rect x="570" y="360" width="10" height="10" fill="#FFFFFE" />
<rect x="580" y="360" width="10" height="10" fill="#FFFFFE" />
<rect x="590" y="360" width="10" height="10" fill="#FFFFFE" />
<rect x="600" y="360" width="10" height="10" fill="#FFFFFE" />
<rect x="610" y="360" width="10" height="10" fill="#FFFFFE" />
<rect x="620" y="360" width="10" height="10" fill="#FFFFFE" />
<rect x="630" y="360" width="10" height="10" fill="#FFFFFE" />
<rect x="640" y="360" width="10" height="10" fill="#FFFFFE" />
<rect x="650" y="360" width="10" height="10" fill="#FFFFFE" />
<rect x="660" y="360" width="10" height="10" fill="#FFFFFE" />
<rect x="670" y="360" width="10" height="10" fill="#FFFFFE" />
<rect x="680" y="360" width="10" height="10" fill="#FFFFFE" />
<rect x="690" y="360" width="10" height="10" fill="#FFFFFE" />
<rect x="700" y="360" width="10" height="10" fill="#FFFFFE" />
<rect x="710" y="360" width="10" height="10" fill="#FFFFFE" />
<rect x="720" y="360" width="10" height="10" fill="#FFFFFE" />
<rect x="730" y="360" width="10" height="10" fill="#FFFFFE" />
<rect x="740" y="360" width="10" height="10" fill="#FFFFFE" />
<rect x="750" y="360" width="10" height="10" fill="#FFFFFE" />
<rect x="760" y="360" width="10" height="10" fill="#FFFFFE" />
<rect x="770" y="360" width="10" height="10" fill="#FFFFFE" />
<rect x="500" y="370" width="10" height="10" fill="#FFFFFE" />
<rect x="510" y="370" width="10" height="10" fill="#FFFFFE" />
<rect x="520" y="370" width="10" height="10" fill="#FFFFFE" />
<rect x="530" y="370" width="10" height="10" fill="#FFFFFE" />
<rect x="540" y="370" width="10" height="10" fill="#FFFFFE" />
<rect x="550" y="370" width="10" height="10" fill="#FFFFFE" />
<rect x="560" y="370" width="10" height="10" fill="#FFFFFE" />
<rect x="570" y="370" width="10" height="10" fill="#FFFFFE" />
<rect x="580" y="370" width="10" height="10" fill="#FFFFFE" />
<rect x="590" y="370" width="10" height="10" fill="#FFFFFE" />
<rect x="600" y="370" width="10" height="10" fill="#FFFFFE" />
<rect x="610" y="370" width="10" height="10" fill="#FFFFFE" />
<rect x="620" y="370" width="10" height="10" fill="#FFFFFE" />
<rect x="630" y="370" width="10" height="10" fill="#FFFFFE" />
<rect x="640" y="370" width="10" height="10" fill="#FFFFFE" />
<rect x="650" y="370" width="10" height="10" fill="#FFFFFE" />
<rect x="660" y="370" width="10" height="10" fill="#FFFFFE" />
<rect x="670" y="370" width="10" height="10" fill="#FFFFFE" />
<rect x="680" y="370" width="10" height="10" fill="#FFFFFE" />
<rect x="690" y="370" width="10" height="10" fill="#FFFFFE" />
<rect x="700" y="370" width="10" height="10" fill="#FFFFFE" />
<rect x="710" y="370" width="10" height="10" fill="#FFFFFE" />
<rect x="720" y="370" width="10" height="10" fill="#FFFFFE" />
<rect x="730" y="370" width="10" height="10" fill="#FFFFFE" />
<rect x="740" y="370" width="10" height="10" fill="#FFFFFE" />
<rect x="750" y="370" width="10" height="10" fill="#FFFFFE" />
<rect x="760" y="370" width="10" height="10" fill="#FFFFFE" />
<rect x="770" y="370" width="10" height="10" fill="#FFFFFE" />
<rect x="500" y="380" width="10" height="10" fill="#FFFFFE" />
<rect x="510" y="380" width="10" height="10" fill="#FFFFFE" />
<rect x="520" y="380" width="10" height="10" fill="#FFFFFE" />
<rect x="530" y="380" width="10" height="10" fill="#FFFFFE" />
<rect x="540" y="380" width="10" height="10" fill="#FFFFFE" />
<rect x="550" y="380" width="10" height="10" fill="#FFFFFE" />
<rect x="560" y="380" width="10" height="10" fill="#FFFFFE" />
<rect x="570" y="380" width="10" height="10" fill="#FFFFFE" />
<rect x="580" y="380" width="10" height="10" fill="#FFFFFE" />
<rect x="590" y="380" width="10" height="10" fill="#FFFFFE" />
<rect x="600" y="380" width="10" height="10" fill="#FFFFFE" />
<rect x="610" y="380" width="10" height="10" fill="#FFFFFE" />
<rect x="620" y="380" width="10" height="10" fill="#FFFFFE" />
<rect x="630" y="380" width="10" height="10" fill="#FFFFFE" />
<rect x="640" y="380" width="10" height="10" fill="#FFFFFE" />
<rect x="650" y="380" width="10" height="10" fill="#FFFFFE" />
<rect x="660" y="380" width="10" height="10" fill="#FFFFFE" />
<rect x="670" y="380" width="10" height="10" fill="#FFFFFE" />
<rect x="680" y="380" width="10" height="10" fill="#FFFFFE" />
<rect x="690" y="380" width="10" height="10" fill="#FFFFFE" />
<rect x="700" y="380" width="10" height="10" fill="#FFFFFE" />
<rect x="710" y="380" width="10" height="10" fill="#FFFFFE" />
<rect x="720" y="380" width="10" height="10" fill="#FFFFFE" />
<rect x="730" y="380" width="10" height="10" fill="#FFFFFE" />
<rect x="740" y="380" width="10" height="10" fill="#FFFFFE" />
<rect x="750" y="380" width="10" height="10" fill="#FFFFFE" />
<rect x="760" y="380" width="10" height="10" fill="#FFFFFE" />
<rect x="770" y="380" width="10" height="10" fill="#FFFFFE" />
<rect x="500" y="390" width="10" height="10" fill="#FFFFFE" />
<rect x="510" y="390" width="10" height="10" fill="#FFFFFE" />
<rect x="520" y="390" width="10" height="10" fill="#FFFFFE" />
<rect x="530" y="390" width="10" height="10" fill="#FFFFFE" />
<rect x="540" y="390" width="10" height="10" fill="#FFFFFE" />
<rect x="550" y="390" width="10" height="10" fill="#FFFFFE" />
<rect x="560" y="390" width="10" height="10" fill="#FFFFFE" />
<rect x="570" y="390" width="10" height="10" fill="#FFFFFE" />
<rect x="580" y="390" width="10" height="10" fill="#FFFFFE" />
<rect x="590" y="390" width="10" height="10" fill="#FFFFFE" />
<rect x="600" y="390" width="10" height="10" fill="#FFFFFE" />
<rect x="610" y="390" width="10" height="10" fill="#FFFFFE" />
<rect x="620" y="390" width="10" height="10" fill="#FFFFFE" />
<rect x="630" y="390" width="10" height="10" fill="#FFFFFE" />
<rect x="640" y="390" width="10" height="10" fill="#FFFFFE" />
<rect x="650" y="390" width="10" height="10" fill="#FFFFFE" />
<rect x="660" y="390" width="10" height="10" fill="#FFFFFE" />
<rect x="670" y="390" width="10" height="10" fill="#FFFFFE" />
<rect x="680" y="390" width="10" height="10" fill="#FFFFFE" />
<rect x="690" y="390" width="10" height="10" fill="#FFFFFE" />
<rect x="700" y="390" width="10" height="10" fill="#FFFFFE" />
<rect x="710" y="390" width="10" height="10" fill="#FFFFFE" />
<rect x="720" y="390" width="10" height="10" fill="#FFFFFE" />
<rect x="730" y="390" width="10" height="10" fill="#FFFFFE" />
<rect x="740" y="390" width="10" height="10" fill="#FFFFFE" />
<rect x="750" y="390" width="10" height="10" fill="#FFFFFE" />
<rect x="760" y="390" width="10" height="10" fill="#FFFFFE" />
<rect x="770" y="390" width="10" height="10" fill="#FFFFFE" />
<rect x="500" y="400" width="10" height="10" fill="#FFFFFE" />
<rect x="510" y="400" width="10" height="10" fill="#FFFFFE" />
<rect x="520" y="400" width="10" height="10" fill="#FFFFFE" />
<rect x="530" y="400" width="10" height="10" fill="#FFFFFE" />
<rect x="540" y="400" width="10" height="10" fill="#FFFFFE" />
<rect x="550" y="400" width="10" height="10" fill="#FFFFFE" />
<rect x="560" y="400" width="10" height="10" fill="#FFFFFE" />
<rect x="570" y="400" width="10" height="10" fill="#FFFFFE" />
<rect x="580" y="400" width="10" height="10" fill="#FFFFFE" />
<rect x="590" y="400" width="10" height="10" fill="#FFFFFE" />
<rect x="600" y="400" width="10" height="10" fill="#FFFFFE" />
<rect x="610" y="400" width="10" height="10" fill="#FFFFFE" />
<rect x="620" y="400" width="10" height="10" fill="#FFFFFE" />
<rect x="630" y="400" width="10" height="10" fill="#FFFFFE" />
<rect x="640" y="400" width="10" height="10" fill="#FFFFFE" />
<rect x="650" y="400" width="10" height="10" fill="#FFFFFE" />
<rect x="660" y="400" width="10" height="10" fill="#FFFFFE" />
<rect x="670" y="400" width="10" height="10" fill="#FFFFFE" />
<rect x="680" y="400" width="10" height="10" fill="#FFFFFE" />
<rect x="690" y="400" width="10" height="10" fill="#FFFFFE" />
<rect x="700" y="400" width="10" height="10" fill="#FFFFFE" />
<rect x="710" y="400" width="10" height="10" fill="#FFFFFE" />
<rect x="720" y="400" width="10" height="10" fill="#FFFFFE" />
<rect x="730" y="400" width="10" height="10" fill="#FFFFFE" />
<rect x="740" y="400" width="10" height="10" fill="#FFFFFE" />
<rect x="750" y="400" width="10" height="10" fill="#FFFFFE" />
<rect x="760" y="400" width="10" height="10" fill="#FFFFFE" />
<rect x="770" y="400" width="10" height="10" fill="#FFFFFE" />
<rect x="500" y="410" width="10" height="10" fill="#FFFFFE" />
<rect x="510" y="410" width="10" height="10" fill="#FFFFFE" />
<rect x="520" y="410" width="10" height="10" fill="#FFFFFE" />
<rect x="530" y="410" width="10" height="10" fill="#FFFFFE" />
<rect x="540" y="410" width="10" height="10" fill="#FFFFFE" />
<rect x="550" y="410" width="10" height="10" fill="#FFFFFE" />
<rect x="560" y="410" width="10" height="10" fill="#FFFFFE" />
<rect x="570" y="410" width="10" height="10" fill="#FFFFFE" />
<rect x="580" y="410" width="10" height="10" fill="#FFFFFE" />
<rect x="590" y="410" width="10" height="10" fill="#FFFFFE" />
<rect x="600" y="410" width="10" height="10" fill="#FFFFFE" />
<rect x="610" y="410" width="10" height="10" fill="#FFFFFE" />
<rect x="620" y="410" width="10" height="10" fill="#FFFFFE" />
<rect x="630" y="410" width="10" height="10" fill="#FFFFFE" />
<rect x="640" y="410" width="10" height="10" fill="#FFFFFE" />
<rect x="650" y="410" width="10" height="10" fill="#FFFFFE" />
<rect x="660" y="410" width="10" height="10" fill="#FFFFFE" />
<rect x="670" y="410" width="10" height="10" fill="#FFFFFE" />
<rect x="680" y="410" width="10" height="10" fill="#FFFFFE" />
<rect x="690" y="410" width="10" height="10" fill="#FFFFFE" />
<rect x="700" y="410" width="10" height="10" fill="#FFFFFE" />
<rect x="710" y="410" width="10" height="10" fill="#FFFFFE" />
<rect x="720" y="410" width="10" height="10" fill="#FFFFFE" />
<rect x="730" y="410" width="10" height="10" fill="#FFFFFE" />
<rect x="740" y="410" width="10" height="10" fill="#FFFFFE" />
<rect x="750" y="410" width="10" height="10" fill="#FFFFFE" />
<rect x="760" y="410" width="10" height="10" fill="#FFFFFE" />
<rect x="770" y="410" width="10" height="10" fill="#FFFFFE" />
<rect x="500" y="420" width="10" height="10" fill="#FFFFFE" />
<rect x="510" y="420" width="10" height="10" fill="#FFFFFE" />
<rect x="520" y="420" width="10" height="10" fill="#FFFFFE" />
<rect x="530" y="420" width="10" height="10" fill="#FFFFFE" />
<rect x="540" y="420" width="10" height="10" fill="#FFFFFE" />
<rect x="550" y="420" width="10" height="10" fill="#FFFFFE" />
<rect x="560" y="420" width="10" height="10" fill="#FFFFFE" />
<rect x="570" y="420" width="10" height="10" fill="#FFFFFE" />
<rect x="580" y="420" width="10" height="10" fill="#FFFFFE" />
<rect x="590" y="420" width="10" height="10" fill="#FFFFFE" />
<rect x="600" y="420" width="10" height="10" fill="#FFFFFE" />
<rect x="610" y="420" width="10" height="10" fill="#FFFFFE" />
<rect x="620" y="420" width="10" height="10" fill="#FFFFFE" />
<rect x="630" y="420" width="10" height="10" fill="#FFFFFE" />
<rect x="640" y="420" width="10" height="10" fill="#FFFFFE" />
<rect x="650" y="420" width="10" height="10" fill="#FFFFFE" />
<rect x="660" y="420" width="10" height="10" fill="#FFFFFE" />
<rect x="670" y="420" width="10" height="10" fill="#FFFFFE" />
<rect x="680" y="420" width="10" height="10" fill="#FFFFFE" />
<rect x="690" y="420" width="10" height="10" fill="#FFFFFE" />
<rect x="700" y="420" width="10" height="10" fill="#FFFFFE" />
<rect x="710" y="420" width="10" height="10" fill="#FFFFFE" />
<rect x="720" y="420" width="10" height="10" fill="#FFFFFE" />
<rect x="730" y="420" width="10" height="10" fill="#FFFFFE" />
<rect x="740" y="420" width="10" height="10" fill="#FFFFFE" />
<rect x="750" y="420" width="10" height="10" fill="#FFFFFE" />
<rect x="760" y="420" width="10" height="10" fill="#FFFFFE" />
<rect x="770" y="420" width="10" height="10" fill="#FFFFFE" />
<rect x="500" y="430" width="10" height="10" fill="#FFFFFE" />
<rect x="510" y="430" width="10" height="10" fill="#FFFFFE" />
<rect x="520" y="430" width="10" height="10" fill="#FFFFFE" />
<rect x="530" y="430" width="10" height="10" fill="#FFFFFE" />
<rect x="540" y="430" width="10" height="10" fill="#FFFFFE" />
<rect x="550" y="430" width="10" height="10" fill="#FFFFFE" />
<rect x="560" y="430" width="10" height="10" fill="#FFFFFE" />
<rect x="570" y="430" width="10" height="10" fill="#FFFFFE" />
<rect x="580" y="430" width="10" height="10" fill="#FFFFFE" />
<rect x="590" y="430" width="10" height="10" fill="#FFFFFE" />
<rect x="600" y="430" width="10" height="10" fill="#FFFFFE" />
<rect x="610" y="430" width="10" height="10" fill="#FFFFFE" />
<rect x="620" y="430" width="10" height="10" fill="#FFFFFE" />
<rect x="630" y="430" width="10" height="10" fill="#FFFFFE" />
<rect x="640" y="430" width="10" height="10" fill="#FFFFFE" />
<rect x="650" y="430" width="10" height="10" fill="#FFFFFE" />
<rect x="660" y="430" width="10" height="10" fill="#FFFFFE" />
<rect x="670" y="430" width="10" height="10" fill="#FFFFFE" />
<rect x="680" y="430" width="10" height="10" fill="#FFFFFE" />
<rect x="690" y="430" width="10" height="10" fill="#FFFFFE" />
<rect x="700" y="430" width="10" height="10" fill="#FFFFFE" />
<rect x="710" y="430" width="10" height="10" fill="#FFFFFE" />
<rect x="720" y="430" width="10" height="10" fill="#FFFFFE" />
<rect x="730" y="430" width="10" height="10" fill="#FFFFFE" />
<rect x="740" y="430" width="10" height="10" fill="#FFFFFE" />
<rect x="750" y="430" width="10" height="10" fill="#FFFFFE" />
<rect x="760" y="430" width="10" height="10" fill="#FFFFFE" />
<rect x="770" y="430" width="10" height="10" fill="#FFFFFE" />
<rect x="510" y="440" width="10" height="10" fill="#FFFFFE" />
<rect x="520" y="440" width="10" height="10" fill="#FFFFFE" />
<rect x="530" y="440" width="10" height="10" fill="#FFFFFE" />
<rect x="540" y="440" width="10" height="10" fill="#FFFFFE" />
<rect x="550" y="440" width="10" height="10" fill="#FFFFFE" />
<rect x="560" y="440" width="10" height="10" fill="#FFFFFE" />
<rect x="570" y="440" width="10" height="10" fill="#FFFFFE" />
<rect x="580" y="440" width="10" height="10" fill="#FFFFFE" />
<rect x="590" y="440" width="10" height="10" fill="#FFFFFE" />
<rect x="600" y="440" width="10" height="10" fill="#FFFFFE" />
<rect x="610" y="440" width="10" height="10" fill="#FFFFFE" />
<rect x="620" y="440" width="10" height="10" fill="#FFFFFE" />
<rect x="630" y="440" width="10" height="10" fill="#FFFFFE" />
<rect x="640" y="440" width="10" height="10" fill="#FFFFFE" />
<rect x="650" y="440" width="10" height="10" fill="#FFFFFE" />
<rect x="660" y="440" width="10" height="10" fill="#FFFFFE" />
<rect x="670" y="440" width="10" height="10" fill="#FFFFFE" />
<rect x="680" y="440" width="10" height="10" fill="#FFFFFE" />
<rect x="690" y="440" width="10" height="10" fill="#FFFFFE" />
<rect x="700" y="440" width="10" height="10" fill="#FFFFFE" />
<rect x="710" y="440" width="10" height="10" fill="#FFFFFE" />
<rect x="720" y="440" width="10" height="10" fill="#FFFFFE" />
<rect x="730" y="440" width="10" height="10" fill="#FFFFFE" />
<rect x="740" y="440" width="10" height="10" fill="#FFFFFE" />
<rect x="750" y="440" width="10" height="10" fill="#FFFFFE" />
<rect x="760" y="440" width="10" height="10" fill="#FFFFFE" />
<rect x="510" y="450" width="10" height="10" fill="#FFFFFE" />
<rect x="520" y="450" width="10" height="10" fill="#FFFFFE" />
<rect x="530" y="450" width="10" height="10" fill="#FFFFFE" />
<rect x="540" y="450" width="10" height="10" fill="#FFFFFE" />
<rect x="550" y="450" width="10" height="10" fill="#FFFFFE" />
<rect x="560" y="450" width="10" height="10" fill="#FFFFFE" />
<rect x="570" y="450" width="10" height="10" fill="#FFFFFE" />
<rect x="580" y="450" width="10" height="10" fill="#FFFFFE" />
<rect x="590" y="450" width="10" height="10" fill="#FFFFFE" />
<rect x="600" y="450" width="10" height="10" fill="#FFFFFE" />
<rect x="610" y="450" width="10" height="10" fill="#FFFFFE" />
<rect x="620" y="450" width="10" height="10" fill="#FFFFFE" />
<rect x="630" y="450" width="10" height="10" fill="#FFFFFE" />
<rect x="640" y="450" width="10" height="10" fill="#FFFFFE" />
<rect x="650" y="450" width="10" height="10" fill="#FFFFFE" />
<rect x="660" y="450" width="10" height="10" fill="#FFFFFE" />
<rect x="670" y="450" width="10" height="10" fill="#FFFFFE" />
<rect x="680" y="450" width="10" height="10" fill="#FFFFFE" />
<rect x="690" y="450" width="10" height="10" fill="#FFFFFE" />
<rect x="700" y="450" width="10" height="10" fill="#FFFFFE" />
<rect x="710" y="450" width="10" height="10" fill="#FFFFFE" />
<rect x="720" y="450" width="10" height="10" fill="#FFFFFE" />
<rect x="730" y="450" width="10" height="10" fill="#FFFFFE" />
<rect x="740" y="450" width="10" height="10" fill="#FFFFFE" />
<rect x="750" y="450" width="10" height="10" fill="#FFFFFE" />
<rect x="760" y="450" width="10" height="10" fill="#FFFFFE" />
<rect x="530" y="460" width="10" height="10" fill="#FFFFFE" />
<rect x="540" y="460" width="10" height="10" fill="#FFFFFE" />
<rect x="550" y="460" width="10" height="10" fill="#FFFFFE" />
<rect x="560" y="460" width="10" height="10" fill="#FFFFFE" />
<rect x="570" y="460" width="10" height="10" fill="#FFFFFE" />
<rect x="580" y="460" width="10" height="10" fill="#FFFFFE" />
<rect x="590" y="460" width="10" height="10" fill="#FFFFFE" />
<rect x="600" y="460" width="10" height="10" fill="#FFFFFE" />
<rect x="610" y="460" width="10" height="10" fill="#FFFFFE" />
<rect x="620" y="460" width="10" height="10" fill="#FFFFFE" />
<rect x="630" y="460" width="10" height="10" fill="#FFFFFE" />
<rect x="640" y="460" width="10" height="10" fill="#FFFFFE" />
<rect x="650" y="460" width="10" height="10" fill="#FFFFFE" />
<rect x="660" y="460" width="10" height="10" fill="#FFFFFE" />
<rect x="670" y="460" width="10" height="10" fill="#FFFFFE" />
<rect x="680" y="460" width="10" height="10" fill="#FFFFFE" />
<rect x="690" y="460" width="10" height="10" fill="#FFFFFE" />
<rect x="700" y="460" width="10" height="10" fill="#FFFFFE" />
<rect x="710" y="460" width="10" height="10" fill="#FFFFFE" />
<rect x="720" y="460" width="10" height="10" fill="#FFFFFE" />
<rect x="730" y="460" width="10" height="10" fill="#FFFFFE" />
<rect x="740" y="460" width="10" height="10" fill="#FFFFFE" />
<rect x="540" y="470" width="10" height="10" fill="#FFFFFE" />
<rect x="550" y="470" width="10" height="10" fill="#FFFFFE" />
<rect x="560" y="470" width="10" height="10" fill="#FFFFFE" />
<rect x="570" y="470" width="10" height="10" fill="#FFFFFE" />
<rect x="580" y="470" width="10" height="10" fill="#FFFFFE" />
<rect x="590" y="470" width="10" height="10" fill="#FFFFFE" />
<rect x="600" y="470" width="10" height="10" fill="#FFFFFE" />
<rect x="610" y="470" width="10" height="10" fill="#FFFFFE" />
<rect x="620" y="470" width="10" height="10" fill="#FFFFFE" />
<rect x="630" y="470" width="10" height="10" fill="#FFFFFE" />
<rect x="640" y="470" width="10" height="10" fill="#FFFFFE" />
<rect x="650" y="470" width="10" height="10" fill="#FFFFFE" />
<rect x="660" y="470" width="10" height="10" fill="#FFFFFE" />
<rect x="670" y="470" width="10" height="10" fill="#FFFFFE" />
<rect x="680" y="470" width="10" height="10" fill="#FFFFFE" />
<rect x="690" y="470" width="10" height="10" fill="#FFFFFE" />
<rect x="700" y="470" width="10" height="10" fill="#FFFFFE" />
<rect x="710" y="470" width="10" height="10" fill="#FFFFFE" />
<rect x="720" y="470" width="10" height="10" fill="#FFFFFE" />
<rect x="730" y="470" width="10" height="10" fill="#FFFFFE" />
<rect x="740" y="470" width="10" height="10" fill="#FFFFFE" />
<rect x="540" y="480" width="10" height="10" fill="#FFFFFE" />
<rect x="550" y="480" width="10" height="10" fill="#FFFFFE" />
<rect x="560" y="480" width="10" height="10" fill="#FFFFFE" />
<rect x="570" y="480" width="10" height="10" fill="#FFFFFE" />
<rect x="580" y="480" width="10" height="10" fill="#FFFFFE" />
<rect x="590" y="480" width="10" height="10" fill="#FFFFFE" />
<rect x="600" y="480" width="10" height="10" fill="#FFFFFE" />
<rect x="610" y="480" width="10" height="10" fill="#FFFFFE" />
<rect x="620" y="480" width="10" height="10" fill="#FFFFFE" />
<rect x="630" y="480" width="10" height="10" fill="#FFFFFE" />
<rect x="640" y="480" width="10" height="10" fill="#FFFFFE" />
<rect x="650" y="480" width="10" height="10" fill="#FFFFFE" />
<rect x="660" y="480" width="10" height="10" fill="#FFFFFE" />
<rect x="670" y="480" width="10" height="10" fill="#FFFFFE" />
<rect x="680" y="480" width="10" height="10" fill="#FFFFFE" />
<rect x="690" y="480" width="10" height="10" fill="#FFFFFE" />
<rect x="700" y="480" width="10" height="10" fill="#FFFFFE" />
<rect x="710" y="480" width="10" height="10" fill="#FFFFFE" />
<rect x="720" y="480" width="10" height="10" fill="#FFFFFE" />
<rect x="550" y="490" width="10" height="10" fill="#FFFFFE" />
<rect x="560" y="490" width="10" height="10" fill="#FFFFFE" />
<rect x="570" y="490" width="10" height="10" fill="#FFFFFE" />
<rect x="580" y="490" width="10" height="10" fill="#FFFFFE" />
<rect x="590" y="490" width="10" height="10" fill="#FFFFFE" />
<rect x="600" y="490" width="10" height="10" fill="#FFFFFE" />
<rect x="610" y="490" width="10" height="10" fill="#FFFFFE" />
<rect x="620" y="490" width="10" height="10" fill="#FFFFFE" />
<rect x="630" y="490" width="10" height="10" fill="#FFFFFE" />
<rect x="640" y="490" width="10" height="10" fill="#FFFFFE" />
<rect x="650" y="490" width="10" height="10" fill="#FFFFFE" />
<rect x="660" y="490" width="10" height="10" fill="#FFFFFE" />
<rect x="670" y="490" width="10" height="10" fill="#FFFFFE" />
<rect x="680" y="490" width="10" height="10" fill="#FFFFFE" />
<rect x="690" y="490" width="10" height="10" fill="#FFFFFE" />
<rect x="700" y="490" width="10" height="10" fill="#FFFFFE" />
<rect x="710" y="490" width="10" height="10" fill="#FFFFFE" />
<rect x="720" y="490" width="10" height="10" fill="#FFFFFE" />
<rect x="570" y="500" width="10" height="10" fill="#FFFFFE" />
<rect x="580" y="500" width="10" height="10" fill="#FFFFFE" />
<rect x="590" y="500" width="10" height="10" fill="#FFFFFE" />
<rect x="600" y="500" width="10" height="10" fill="#FFFFFE" />
<rect x="610" y="500" width="10" height="10" fill="#FFFFFE" />
<rect x="620" y="500" width="10" height="10" fill="#FFFFFE" />
<rect x="630" y="500" width="10" height="10" fill="#FFFFFE" />
<rect x="640" y="500" width="10" height="10" fill="#FFFFFE" />
<rect x="650" y="500" width="10" height="10" fill="#FFFFFE" />
<rect x="660" y="500" width="10" height="10" fill="#FFFFFE" />
<rect x="670" y="500" width="10" height="10" fill="#FFFFFE" />
<rect x="680" y="500" width="10" height="10" fill="#FFFFFE" />
<rect x="690" y="500" width="10" height="10" fill="#FFFFFE" />
<rect x="700" y="500" width="10" height="10" fill="#FFFFFE" />
<rect x="590" y="510" width="10" height="10" fill="#FFFFFE" />
<rect x="600" y="510" width="10" height="10" fill="#FFFFFE" />
<rect x="610" y="510" width="10" height="10" fill="#FFFFFE" />
<rect x="620" y="510" width="10" height="10" fill="#FFFFFE" />
<rect x="630" y="510" width="10" height="10" fill="#FFFFFE" />
<rect x="640" y="510" width="10" height="10" fill="#FFFFFE" />
<rect x="650" y="510" width="10" height="10" fill="#FFFFFE" />
<rect x="660" y="510" width="10" height="10" fill="#FFFFFE" />
<rect x="670" y="510" width="10" height="10" fill="#FFFFFE" />
<rect x="680" y="510" width="10" height="10" fill="#FFFFFE" />
<rect x="690" y="510" width="10" height="10" fill="#FFFFFE" />
</svg>