<svg width="215" height="217" viewBox="0 0 215 217" fill="none" xmlns="http://www.w3.org/2000/svg">
<g clip-path="url(#clip0_2072_1871)">
<path d="M86.3001 0.183594H71.9839V14.4772H86.3001V0.183594Z" fill="#6D59B3"/>
<path d="M100.617 0.183594H86.3003V14.4772H100.617V0.183594Z" fill="#6D59B3"/>
<path d="M114.933 0.183594H100.617V14.4772H114.933V0.183594Z" fill="#6D59B3"/>
<path d="M129.249 0.183594H114.933V14.4772H129.249V0.183594Z" fill="#6D59B3"/>
<path d="M143.565 0.183594H129.249V14.4772H143.565V0.183594Z" fill="#6D59B3"/>
<path d="M57.6678 14.4766H43.3516V28.7702H57.6678V14.4766Z" fill="#6D59B3"/>
<path d="M71.9842 14.4766H57.668V28.7702H71.9842V14.4766Z" fill="#6D59B3"/>
<path d="M86.3001 14.4766H71.9839V28.7702H86.3001V14.4766Z" fill="#483881"/>
<path d="M100.617 14.4766H86.3003V28.7702H100.617V14.4766Z" fill="#483881"/>
<path d="M114.933 14.4766H100.617V28.7702H114.933V14.4766Z" fill="#483881"/>
<path d="M129.249 14.4766H114.933V28.7702H129.249V14.4766Z" fill="#483881"/>
<path d="M143.565 14.4766H129.249V28.7702H143.565V14.4766Z" fill="#483881"/>
<path d="M157.882 14.4766H143.565V28.7702H157.882V14.4766Z" fill="#483881"/>
<path d="M172.198 14.4766H157.881V28.7702H172.198V14.4766Z" fill="#483881"/>
<path d="M43.3514 28.7695H29.0352V43.0632H43.3514V28.7695Z" fill="#6D59B3"/>
<path d="M57.6678 28.7695H43.3516V43.0632H57.6678V28.7695Z" fill="#483881"/>
<path d="M71.9842 28.7695H57.668V43.0632H71.9842V28.7695Z" fill="#483881"/>
<path d="M86.3001 28.7695H71.9839V43.0632H86.3001V28.7695Z" fill="#483881"/>
<path d="M100.617 28.7695H86.3003V43.0632H100.617V28.7695Z" fill="#483881"/>
<path d="M114.933 28.7695H100.617V43.0632H114.933V28.7695Z" fill="#483881"/>
<path d="M129.249 28.7695H114.933V43.0632H129.249V28.7695Z" fill="#483881"/>
<path d="M143.565 28.7695H129.249V43.0632H143.565V28.7695Z" fill="#483881"/>
<path d="M157.882 28.7695H143.565V43.0632H157.882V28.7695Z" fill="#483881"/>
<path d="M172.198 28.7695H157.881V43.0632H172.198V28.7695Z" fill="#483881"/>
<path d="M186.514 28.7695H172.198V43.0632H186.514V28.7695Z" fill="#483881"/>
<path d="M29.0355 43.0625H14.7192V57.3561H29.0355V43.0625Z" fill="#6D59B3"/>
<path d="M43.3514 43.0625H29.0352V57.3561H43.3514V43.0625Z" fill="#483881"/>
<path d="M57.6678 43.0625H43.3516V57.3561H57.6678V43.0625Z" fill="#483881"/>
<path d="M71.9842 43.0625H57.668V57.3561H71.9842V43.0625Z" fill="#483881"/>
<path d="M86.3001 43.0625H71.9839V57.3561H86.3001V43.0625Z" fill="#483881"/>
<path d="M100.617 43.0625H86.3003V57.3561H100.617V43.0625Z" fill="#483881"/>
<path d="M114.933 43.0625H100.617V57.3561H114.933V43.0625Z" fill="#483881"/>
<path d="M129.249 43.0625H114.933V57.3561H129.249V43.0625Z" fill="#483881"/>
<path d="M143.565 43.0625H129.249V57.3561H143.565V43.0625Z" fill="#483881"/>
<path d="M157.882 43.0625H143.565V57.3561H157.882V43.0625Z" fill="#483881"/>
<path d="M172.198 43.0625H157.881V57.3561H172.198V43.0625Z" fill="#483881"/>
<path d="M186.514 43.0625H172.198V57.3561H186.514V43.0625Z" fill="#483881"/>
<path d="M200.83 43.0625H186.514V57.3561H200.83V43.0625Z" fill="#483881"/>
<path d="M29.0355 57.3574H14.7192V71.6511H29.0355V57.3574Z" fill="#6D59B3"/>
<path d="M43.3514 57.3574H29.0352V71.6511H43.3514V57.3574Z" fill="#483881"/>
<path d="M57.6678 57.3574H43.3516V71.6511H57.6678V57.3574Z" fill="#483881"/>
<path d="M71.9842 57.3574H57.668V71.6511H71.9842V57.3574Z" fill="#483881"/>
<path d="M86.3001 57.3574H71.9839V71.6511H86.3001V57.3574Z" fill="#483881"/>
<path d="M100.617 57.3574H86.3003V71.6511H100.617V57.3574Z" fill="#483881"/>
<path d="M114.933 57.3574H100.617V71.6511H114.933V57.3574Z" fill="#483881"/>
<path d="M129.249 57.3574H114.933V71.6511H129.249V57.3574Z" fill="#483881"/>
<path d="M143.565 57.3574H129.249V71.6511H143.565V57.3574Z" fill="#483881"/>
<path d="M157.882 57.3574H143.565V71.6511H157.882V57.3574Z" fill="#483881"/>
<path d="M172.198 57.3574H157.881V71.6511H172.198V57.3574Z" fill="#483881"/>
<path d="M186.514 57.3574H172.198V71.6511H186.514V57.3574Z" fill="#483881"/>
<path d="M200.83 57.3574H186.514V71.6511H200.83V57.3574Z" fill="#483881"/>
<path d="M14.7191 71.6523H0.402832V85.946H14.7191V71.6523Z" fill="#6D59B3"/>
<path d="M29.0355 71.6523H14.7192V85.946H29.0355V71.6523Z" fill="#483881"/>
<path d="M43.3514 71.6523H29.0352V85.946H43.3514V71.6523Z" fill="#483881"/>
<path d="M57.6678 71.6523H43.3516V85.946H57.6678V71.6523Z" fill="#483881"/>
<path d="M71.9842 71.6523H57.668V85.946H71.9842V71.6523Z" fill="#483881"/>
<path d="M86.3001 71.6523H71.9839V85.946H86.3001V71.6523Z" fill="#483881"/>
<path d="M100.617 71.6523H86.3003V85.946H100.617V71.6523Z" fill="#483881"/>
<path d="M114.933 71.6523H100.617V85.946H114.933V71.6523Z" fill="#483881"/>
<path d="M129.249 71.6523H114.933V85.946H129.249V71.6523Z" fill="#483881"/>
<path d="M143.565 71.6523H129.249V85.946H143.565V71.6523Z" fill="#483881"/>
<path d="M157.882 71.6523H143.565V85.946H157.882V71.6523Z" fill="#483881"/>
<path d="M172.198 71.6523H157.881V85.946H172.198V71.6523Z" fill="#483881"/>
<path d="M186.514 71.6523H172.198V85.946H186.514V71.6523Z" fill="#483881"/>
<path d="M200.83 71.6523H186.514V85.946H200.83V71.6523Z" fill="#483881"/>
<path d="M215.146 71.6523H200.83V85.946H215.146V71.6523Z" fill="#483881"/>
<path d="M14.7191 85.9453H0.402832V100.239H14.7191V85.9453Z" fill="#6D59B3"/>
<path d="M29.0355 85.9453H14.7192V100.239H29.0355V85.9453Z" fill="#483881"/>
<path d="M43.3514 85.9453H29.0352V100.239H43.3514V85.9453Z" fill="#483881"/>
<path d="M57.6678 85.9453H43.3516V100.239H57.6678V85.9453Z" fill="#483881"/>
<path d="M71.9842 85.9453H57.668V100.239H71.9842V85.9453Z" fill="#483881"/>
<path d="M86.3001 85.9453H71.9839V100.239H86.3001V85.9453Z" fill="#483881"/>
<path d="M100.617 85.9453H86.3003V100.239H100.617V85.9453Z" fill="#483881"/>
<path d="M114.933 85.9453H100.617V100.239H114.933V85.9453Z" fill="#483881"/>
<path d="M129.249 85.9453H114.933V100.239H129.249V85.9453Z" fill="#483881"/>
<path d="M143.565 85.9453H129.249V100.239H143.565V85.9453Z" fill="#483881"/>
<path d="M157.882 85.9453H143.565V100.239H157.882V85.9453Z" fill="#483881"/>
<path d="M172.198 85.9453H157.881V100.239H172.198V85.9453Z" fill="#483881"/>
<path d="M186.514 85.9453H172.198V100.239H186.514V85.9453Z" fill="#483881"/>
<path d="M200.83 85.9453H186.514V100.239H200.83V85.9453Z" fill="#483881"/>
<path d="M215.146 85.9453H200.83V100.239H215.146V85.9453Z" fill="#483881"/>
<path d="M14.7191 100.238H0.402832V114.532H14.7191V100.238Z" fill="#6D59B3"/>
<path d="M29.0355 100.238H14.7192V114.532H29.0355V100.238Z" fill="#483881"/>
<path d="M43.3514 100.238H29.0352V114.532H43.3514V100.238Z" fill="#483881"/>
<path d="M57.6678 100.238H43.3516V114.532H57.6678V100.238Z" fill="#483881"/>
<path d="M71.9842 100.238H57.668V114.532H71.9842V100.238Z" fill="#483881"/>
<path d="M86.3001 100.238H71.9839V114.532H86.3001V100.238Z" fill="#483881"/>
<path d="M100.617 100.238H86.3003V114.532H100.617V100.238Z" fill="#483881"/>
<path d="M114.933 100.238H100.617V114.532H114.933V100.238Z" fill="#483881"/>
<path d="M129.249 100.238H114.933V114.532H129.249V100.238Z" fill="#483881"/>
<path d="M143.565 100.238H129.249V114.532H143.565V100.238Z" fill="#483881"/>
<path d="M157.882 100.238H143.565V114.532H157.882V100.238Z" fill="#483881"/>
<path d="M172.198 100.238H157.881V114.532H172.198V100.238Z" fill="#483881"/>
<path d="M186.514 100.238H172.198V114.532H186.514V100.238Z" fill="#483881"/>
<path d="M200.83 100.238H186.514V114.532H200.83V100.238Z" fill="#483881"/>
<path d="M215.146 100.238H200.83V114.532H215.146V100.238Z" fill="#483881"/>
<path d="M14.7191 114.531H0.402832V128.825H14.7191V114.531Z" fill="#6D59B3"/>
<path d="M29.0355 114.531H14.7192V128.825H29.0355V114.531Z" fill="#483881"/>
<path d="M43.3514 114.531H29.0352V128.825H43.3514V114.531Z" fill="#483881"/>
<path d="M57.6678 114.531H43.3516V128.825H57.6678V114.531Z" fill="#483881"/>
<path d="M71.9842 114.531H57.668V128.825H71.9842V114.531Z" fill="#483881"/>
<path d="M86.3001 114.531H71.9839V128.825H86.3001V114.531Z" fill="#483881"/>
<path d="M100.617 114.531H86.3003V128.825H100.617V114.531Z" fill="#483881"/>
<path d="M114.933 114.531H100.617V128.825H114.933V114.531Z" fill="#483881"/>
<path d="M129.249 114.531H114.933V128.825H129.249V114.531Z" fill="#483881"/>
<path d="M143.565 114.531H129.249V128.825H143.565V114.531Z" fill="#483881"/>
<path d="M157.882 114.531H143.565V128.825H157.882V114.531Z" fill="#483881"/>
<path d="M172.198 114.531H157.881V128.825H172.198V114.531Z" fill="#483881"/>
<path d="M186.514 114.531H172.198V128.825H186.514V114.531Z" fill="#483881"/>
<path d="M200.83 114.531H186.514V128.825H200.83V114.531Z" fill="#483881"/>
<path d="M215.146 114.531H200.83V128.825H215.146V114.531Z" fill="#483881"/>
<path d="M14.7191 128.824H0.402832V143.118H14.7191V128.824Z" fill="#6D59B3"/>
<path d="M29.0355 128.824H14.7192V143.118H29.0355V128.824Z" fill="#483881"/>
<path d="M43.3514 128.824H29.0352V143.118H43.3514V128.824Z" fill="#483881"/>
<path d="M57.6678 128.824H43.3516V143.118H57.6678V128.824Z" fill="#483881"/>
<path d="M71.9842 128.824H57.668V143.118H71.9842V128.824Z" fill="#483881"/>
<path d="M86.3001 128.824H71.9839V143.118H86.3001V128.824Z" fill="#483881"/>
<path d="M100.617 128.824H86.3003V143.118H100.617V128.824Z" fill="#483881"/>
<path d="M114.933 128.824H100.617V143.118H114.933V128.824Z" fill="#483881"/>
<path d="M129.249 128.824H114.933V143.118H129.249V128.824Z" fill="#483881"/>
<path d="M143.565 128.824H129.249V143.118H143.565V128.824Z" fill="#483881"/>
<path d="M157.882 128.824H143.565V143.118H157.882V128.824Z" fill="#483881"/>
<path d="M172.198 128.824H157.881V143.118H172.198V128.824Z" fill="#483881"/>
<path d="M186.514 128.824H172.198V143.118H186.514V128.824Z" fill="#483881"/>
<path d="M200.83 128.824H186.514V143.118H200.83V128.824Z" fill="#483881"/>
<path d="M215.146 128.824H200.83V143.118H215.146V128.824Z" fill="#483881"/>
<path d="M29.0355 143.119H14.7192V157.413H29.0355V143.119Z" fill="#6D59B3"/>
<path d="M43.3514 143.119H29.0352V157.413H43.3514V143.119Z" fill="#483881"/>
<path d="M57.6678 143.119H43.3516V157.413H57.6678V143.119Z" fill="#483881"/>
<path d="M71.9842 143.119H57.668V157.413H71.9842V143.119Z" fill="#483881"/>
<path d="M86.3001 143.119H71.9839V157.413H86.3001V143.119Z" fill="#483881"/>
<path d="M100.617 143.119H86.3003V157.413H100.617V143.119Z" fill="#483881"/>
<path d="M114.933 143.119H100.617V157.413H114.933V143.119Z" fill="#483881"/>
<path d="M129.249 143.119H114.933V157.413H129.249V143.119Z" fill="#483881"/>
<path d="M143.565 143.119H129.249V157.413H143.565V143.119Z" fill="#483881"/>
<path d="M157.882 143.119H143.565V157.413H157.882V143.119Z" fill="#483881"/>
<path d="M172.198 143.119H157.881V157.413H172.198V143.119Z" fill="#483881"/>
<path d="M186.514 143.119H172.198V157.413H186.514V143.119Z" fill="#483881"/>
<path d="M200.83 143.119H186.514V157.413H200.83V143.119Z" fill="#483881"/>
<path d="M29.0355 157.414H14.7192V171.708H29.0355V157.414Z" fill="#6D59B3"/>
<path d="M43.3514 157.414H29.0352V171.708H43.3514V157.414Z" fill="#483881"/>
<path d="M57.6678 157.414H43.3516V171.708H57.6678V157.414Z" fill="#483881"/>
<path d="M71.9842 157.414H57.668V171.708H71.9842V157.414Z" fill="#483881"/>
<path d="M86.3001 157.414H71.9839V171.708H86.3001V157.414Z" fill="#483881"/>
<path d="M100.617 157.414H86.3003V171.708H100.617V157.414Z" fill="#483881"/>
<path d="M114.933 157.414H100.617V171.708H114.933V157.414Z" fill="#483881"/>
<path d="M129.249 157.414H114.933V171.708H129.249V157.414Z" fill="#483881"/>
<path d="M143.565 157.414H129.249V171.708H143.565V157.414Z" fill="#483881"/>
<path d="M157.882 157.414H143.565V171.708H157.882V157.414Z" fill="#483881"/>
<path d="M172.198 157.414H157.881V171.708H172.198V157.414Z" fill="#483881"/>
<path d="M186.514 157.414H172.198V171.708H186.514V157.414Z" fill="#483881"/>
<path d="M200.83 157.414H186.514V171.708H200.83V157.414Z" fill="#483881"/>
<path d="M43.3514 171.707H29.0352V186.001H43.3514V171.707Z" fill="#6D59B3"/>
<path d="M57.6678 171.707H43.3516V186.001H57.6678V171.707Z" fill="#483881"/>
<path d="M71.9842 171.707H57.668V186.001H71.9842V171.707Z" fill="#483881"/>
<path d="M86.3001 171.707H71.9839V186.001H86.3001V171.707Z" fill="#483881"/>
<path d="M100.617 171.707H86.3003V186.001H100.617V171.707Z" fill="#483881"/>
<path d="M114.933 171.707H100.617V186.001H114.933V171.707Z" fill="#483881"/>
<path d="M129.249 171.707H114.933V186.001H129.249V171.707Z" fill="#483881"/>
<path d="M143.565 171.707H129.249V186.001H143.565V171.707Z" fill="#483881"/>
<path d="M157.882 171.707H143.565V186.001H157.882V171.707Z" fill="#483881"/>
<path d="M172.198 171.707H157.881V186.001H172.198V171.707Z" fill="#483881"/>
<path d="M186.514 171.707H172.198V186.001H186.514V171.707Z" fill="#483881"/>
<path d="M57.6678 186H43.3516V200.294H57.6678V186Z" fill="#483881"/>
<path d="M71.9842 186H57.668V200.294H71.9842V186Z" fill="#483881"/>
<path d="M86.3001 186H71.9839V200.294H86.3001V186Z" fill="#483881"/>
<path d="M100.617 186H86.3003V200.294H100.617V186Z" fill="#483881"/>
<path d="M114.933 186H100.617V200.294H114.933V186Z" fill="#483881"/>
<path d="M129.249 186H114.933V200.294H129.249V186Z" fill="#483881"/>
<path d="M143.565 186H129.249V200.294H143.565V186Z" fill="#483881"/>
<path d="M157.882 186H143.565V200.294H157.882V186Z" fill="#483881"/>
<path d="M172.198 186H157.881V200.294H172.198V186Z" fill="#483881"/>
<path d="M86.3001 200.293H71.9839V214.587H86.3001V200.293Z" fill="#483881"/>
<path d="M100.617 200.293H86.3003V214.587H100.617V200.293Z" fill="#483881"/>
<path d="M114.933 200.293H100.617V214.587H114.933V200.293Z" fill="#483881"/>
<path d="M129.249 200.293H114.933V214.587H129.249V200.293Z" fill="#483881"/>
<path d="M143.565 200.293H129.249V214.587H143.565V200.293Z" fill="#483881"/>
</g>
<defs>
<clipPath id="clip0_2072_1871">
<rect width="215" height="217" fill="white"/>
</clipPath>
</defs>
</svg>
