<svg width="360" height="489" viewBox="0 0 360 489" fill="none" xmlns="http://www.w3.org/2000/svg">
<rect width="10" height="449" transform="matrix(-1 0 0 1 350 20)" fill="#41223E"/>
<rect width="10" height="419" transform="matrix(1 0 0 -1 350 449)" fill="#41223E"/>
<rect width="10" height="10" transform="matrix(1 0 0 -1 230 20)" fill="#41223E"/>
<rect x="20" y="10" width="320" height="439" fill="#41223E"/>
<rect x="20" y="19" width="126" height="450" fill="#41223E"/>
<rect x="20" y="34" width="116" height="445" fill="#41223E"/>
<rect x="214" y="19" width="126" height="450" fill="#41223E"/>
<rect x="224" y="34" width="116" height="445" fill="#41223E"/>
<rect x="30" width="300" height="10" fill="#41223E"/>
<rect x="10" y="20" width="10" height="439" fill="#41223E"/>
<rect x="10" y="449" width="10" height="419" transform="rotate(-180 10 449)" fill="#41223E"/>
<rect x="30" y="479" width="106" height="10" fill="#2A1428"/>
<rect x="224" y="479" width="106" height="10" fill="#2A1428"/>
<rect x="214" y="469" width="10" height="10" fill="#2A1428"/>
<rect x="136" y="469" width="10" height="10" fill="#2A1428"/>
<rect x="146" y="449" width="68" height="10" fill="#2A1428"/>
<rect x="20" y="469" width="10" height="10" transform="rotate(-180 20 469)" fill="#2A1428"/>
<rect x="30" y="479" width="10" height="10" transform="rotate(-180 30 479)" fill="#2A1428"/>
<rect x="10" y="459" width="10" height="10" transform="rotate(-180 10 459)" fill="#2A1428"/>
<rect width="10" height="10" transform="matrix(1 0 0 -1 340 469)" fill="#2A1428"/>
<rect width="10" height="10" transform="matrix(1 0 0 -1 350 459)" fill="#2A1428"/>
<rect width="10" height="10" transform="matrix(1 0 0 -1 330 479)" fill="#2A1428"/>
<rect x="30" y="230" width="300" height="10" fill="#2A1428"/>
<rect x="20" y="230" width="10" height="10" transform="rotate(-180 20 230)" fill="#2A1428"/>
<rect x="30" y="230" width="10" height="10" transform="rotate(-180 30 230)" fill="#2A1428"/>
<rect x="10" y="220" width="10" height="10" transform="rotate(-180 10 220)" fill="#2A1428"/>
<rect width="10" height="10" transform="matrix(1 0 0 -1 340 230)" fill="#2A1428"/>
<rect width="10" height="10" transform="matrix(1 0 0 -1 350 220)" fill="#2A1428"/>
<rect width="10" height="10" transform="matrix(1 0 0 -1 330 230)" fill="#2A1428"/>
</svg>
